<svg width="5843" height="1557" viewBox="0 0 5843 1557" fill="none" xmlns="http://www.w3.org/2000/svg">
<path d="M939.962 524.287V26.837H1155.06V1522.68H939.962V714.726H786.214C771.751 847.12 730.014 950.104 661.002 1023.58C591.99 1097.06 503.565 1133.85 395.631 1133.75C321.765 1135.3 249.162 1114.04 187.818 1072.79C128.221 1032.22 82.0186 973.206 49.2112 895.846C16.4037 818.486 0 726.373 0 619.506C0 512.64 16.4037 420.526 49.2112 343.264C82.0186 266.001 128.221 206.987 187.818 166.22C249.162 125.065 321.765 103.808 395.631 105.361C502.497 105.361 590.728 142.342 660.323 216.305C729.917 290.267 771.849 392.96 786.214 524.287H939.962ZM530.063 864.98C561.803 811.498 577.722 729.673 577.625 619.506C577.527 509.339 561.415 427.515 529.093 374.13C496.771 320.648 452.219 293.956 395.534 293.956C338.848 293.956 294.393 320.648 262.071 374.13C229.749 427.515 213.54 509.339 213.54 619.506C213.54 729.673 229.361 811.498 261.101 864.98C292.84 918.365 337.684 945.057 395.436 945.057C453.189 945.057 498.13 918.365 530.063 864.98ZM1267.16 1556.07V0.144531H1487.5V1556.07H1267.16Z" fill="#FF385C"/>
<path d="M2721.72 0.144531H2957.1V1556.07H2721.72V704.631H2471.29C2454.41 836.055 2407.14 938.748 2329.49 1012.71C2251.83 1086.67 2155.55 1123.65 2040.72 1123.75C1877.36 1127.83 1727.5 1033.29 1660.91 884.101C1623.54 806.839 1604.81 715.308 1604.91 609.509C1605 503.71 1623.64 412.179 1660.91 334.916C1727.5 185.73 1877.27 91.19 2040.62 95.2667C2155.16 95.2667 2251.45 132.248 2329.39 206.307C2407.33 280.367 2454.7 383.06 2471.29 514.581H2721.72V0.144531ZM2195.83 854.303C2232.62 800.336 2251.06 718.802 2250.96 609.703C2250.86 500.604 2232.23 419.07 2195.05 365.103C2161.27 312.98 2102.75 282.308 2040.62 284.152C1978.7 282.211 1920.36 312.883 1886.97 365.103C1850.28 419.167 1831.94 500.701 1831.94 609.703C1831.94 718.705 1850.28 800.239 1886.97 854.303C1945.99 939.622 2063.05 960.879 2148.27 901.864C2166.9 888.955 2183.02 872.842 2195.83 854.303Z" fill="#FF385C"/>
<path d="M4198.09 0.144531H4433.47V1556.07H4198.09V741.418H3745.68C3684.14 843.529 3606 934.671 3514.47 1011.06C3418.18 1092.79 3299.96 1168.21 3159.7 1237.22L3056.14 1056.97C3286.57 954.569 3452.45 821.01 3553.68 656.293C3483.6 662.797 3405.18 666 3318.31 666H3077.88V479.25H3370.04C3458.76 480.026 3547.37 475.658 3635.51 466.049C3649.19 412.955 3658.12 358.697 3662.2 303.953H3157.96V118.659H3895.64C3897.87 277.843 3877.29 421.982 3833.91 551.077H4197.8L4198.09 0.144531Z" fill="#222222"/>
<path d="M5606.53 517.687V0.144531H5842.01V1556.07H5606.53V708.028H5321.07V1115.69H4556.5V98.6639H4786.83V442.56H5090.74V98.6639H5321.07V517.687H5606.53ZM4806.24 629.504V928.362H5110.15V629.504H4806.24Z" fill="#222222"/>
</svg>
